<svg xmlns="http://www.w3.org/2000/svg" viewBox="0 0 128 128">
  <defs>
    <linearGradient id="bg" x1="0" y1="0" x2="1" y2="1">
      <stop offset="0" stop-color="#061321"/>
      <stop offset="1" stop-color="#0b2236"/>
    </linearGradient>
    <linearGradient id="cyan" x1="0" y1="1" x2="1" y2="0">
      <stop offset="0" stop-color="#0bb8ee"/>
      <stop offset="1" stop-color="#9beaff"/>
    </linearGradient>
    <linearGradient id="gold" x1="0" y1="1" x2="1" y2="0">
      <stop offset="0" stop-color="#e3a52e"/>
      <stop offset="1" stop-color="#ffe39a"/>
    </linearGradient>
  </defs>
  <rect width="128" height="128" rx="28" fill="url(#bg)"/>
  <path d="M17 96c24 11 58 10 86-6 11-6 17-14 21-23" fill="none" stroke="#0bb8ee" stroke-opacity=".35" stroke-width="2"/>
  <path d="M20 102c28 10 63 5 88-13 10-7 16-15 19-25" fill="none" stroke="#f2be52" stroke-opacity=".35" stroke-width="2"/>
  <path d="M22 98 52 35h12l19 42 20-31v22l-27 38-19-43-20 35Z" fill="url(#cyan)"/>
  <path d="M62 91 92 54h15L77 101H62Z" fill="url(#gold)"/>
  <path d="M77 101 106 67v17l-19 25Z" fill="#d99420" opacity=".9"/>
  <rect x="48" y="80" width="5" height="13" rx="1" fill="#d7f8ff" opacity=".8"/>
  <rect x="55" y="72" width="5" height="21" rx="1" fill="#8be5ff" opacity=".9"/>
  <rect x="62" y="64" width="5" height="29" rx="1" fill="#45cbed" opacity=".9"/>
</svg>
